<svg width="118" height="118" viewBox="0 0 118 118" fill="none" xmlns="http://www.w3.org/2000/svg">
<rect width="118" height="118" rx="25" fill="#3C647C" fill-opacity="0.78"/>
<path d="M24.45 59.5C24.45 54.6933 25.5233 50.4 27.67 46.62C29.8633 42.7933 32.8267 39.83 36.56 37.73C40.34 35.5833 44.5633 34.51 49.23 34.51C54.69 34.51 59.4733 35.91 63.58 38.71C67.6867 41.51 70.5567 45.3833 72.19 50.33H60.92C59.8 47.9967 58.2133 46.2467 56.16 45.08C54.1533 43.9133 51.82 43.33 49.16 43.33C46.3133 43.33 43.77 44.0067 41.53 45.36C39.3367 46.6667 37.61 48.5333 36.35 50.96C35.1367 53.3867 34.53 56.2333 34.53 59.5C34.53 62.72 35.1367 65.5667 36.35 68.04C37.61 70.4667 39.3367 72.3567 41.53 73.71C43.77 75.0167 46.3133 75.67 49.16 75.67C51.82 75.67 54.1533 75.0867 56.16 73.92C58.2133 72.7067 59.8 70.9333 60.92 68.6H72.19C70.5567 73.5933 67.6867 77.49 63.58 80.29C59.52 83.0433 54.7367 84.42 49.23 84.42C44.5633 84.42 40.34 83.37 36.56 81.27C32.8267 79.1233 29.8633 76.16 27.67 72.38C25.5233 68.6 24.45 64.3067 24.45 59.5ZM85.5305 40.6C83.8038 40.6 82.3571 40.0633 81.1905 38.99C80.0705 37.87 79.5105 36.4933 79.5105 34.86C79.5105 33.2267 80.0705 31.8733 81.1905 30.8C82.3571 29.68 83.8038 29.12 85.5305 29.12C87.2571 29.12 88.6805 29.68 89.8005 30.8C90.9671 31.8733 91.5505 33.2267 91.5505 34.86C91.5505 36.4933 90.9671 37.87 89.8005 38.99C88.6805 40.0633 87.2571 40.6 85.5305 40.6ZM90.3605 45.22V84H80.5605V45.22H90.3605Z" fill="#63D2AE"/>
</svg>
